<?xml version="1.0" encoding="UTF-8"?>
<svg height="16px" viewBox="0 0 16 16" width="16px" xmlns="http://www.w3.org/2000/svg" xmlns:xlink="http://www.w3.org/1999/xlink">
    <filter id="a" height="100%" width="100%" x="0%" y="0%">
        <feColorMatrix in="SourceGraphic" type="matrix" values="0 0 0 0 1 0 0 0 0 1 0 0 0 0 1 0 0 0 1 0"/>
    </filter>
    <mask id="b">
        <g filter="url(#a)">
            <rect fill-opacity="0.2" height="16" width="16"/>
        </g>
    </mask>
    <clipPath id="c">
        <rect height="152" width="192"/>
    </clipPath>
    <mask id="d">
        <g filter="url(#a)">
            <rect fill-opacity="0.1" height="16" width="16"/>
        </g>
    </mask>
    <clipPath id="e">
        <rect height="152" width="192"/>
    </clipPath>
    <g clip-path="url(#c)" mask="url(#b)" transform="matrix(1 0 0 1 -168 -16)">
        <path d="m 97.960938 52.78125 c -0.292969 -0.007812 -0.578126 0.113281 -0.773438 0.332031 l -21.976562 23.664063 c -1.660157 -1.085938 -3.75 -1.28125 -5.582032 -0.523438 l -14.21875 -15.800781 c -0.402344 -0.457031 -0.996094 -0.710937 -1.605468 -0.679687 c -0.777344 0.035156 -1.464844 0.519531 -1.757813 1.242187 c -0.292969 0.71875 -0.144531 1.546875 0.382813 2.117187 l 14.21875 15.800782 c -0.890626 1.640625 -0.96875 3.601562 -0.207032 5.304687 c 0.503906 1.125 1.34375 2.066407 2.402344 2.699219 l -11.859375 30.492188 c -0.132813 0.335937 -0.078125 0.71875 0.148437 1 c 0.222657 0.28125 0.582032 0.421874 0.9375 0.363281 c 0.359376 -0.054688 0.65625 -0.296875 0.78125 -0.636719 l 11.859376 -30.492188 c 1.230468 0.257813 2.507812 0.117188 3.652343 -0.390624 c 3.027344 -1.351563 4.386719 -4.898438 3.035157 -7.921876 c -0.191407 -0.429687 -0.4375 -0.835937 -0.722657 -1.207031 l 21.976563 -23.667969 c 0.273437 -0.285156 0.355468 -0.707031 0.203125 -1.070312 c -0.148438 -0.367188 -0.496094 -0.609375 -0.894531 -0.625 z m 0 0" fill-rule="evenodd"/>
    </g>
    <g clip-path="url(#e)" mask="url(#d)" transform="matrix(1 0 0 1 -168 -16)">
        <path d="m 71.929688 25.789062 c -29.824219 0 -54 24.179688 -54 54 c 0.007812 0.390626 0.023437 0.78125 0.039062 1.171876 c 0.453125 -29.484376 24.472656 -53.152344 53.960938 -53.171876 c 29.355468 0.015626 53.320312 23.480469 53.957031 52.828126 c 0.015625 -0.273438 0.03125 -0.550782 0.042969 -0.828126 c 0 -29.820312 -24.179688 -54 -54 -54 z m 0 0"/>
    </g>
    <path d="m 8.015625 -0.101562 c -4.40625 0 -8 3.59375 -8 8 s 3.59375 8 8 8 s 8 -3.59375 8 -8 s -3.59375 -8 -8 -8 z m 0 2 c 3.324219 0 6 2.675781 6 6 c 0 3.324218 -2.675781 6 -6 6 s -6 -2.675782 -6 -6 c 0 -3.324219 2.675781 -6 6 -6 z m 0 0"/>
    <path d="m 5.015625 4.59375 c -0.128906 0.003906 -0.257813 0.058594 -0.351563 0.152344 c -0.191406 0.195312 -0.1875 0.511718 0.007813 0.707031 l 3.113281 3.042969 c 0.105469 0.097656 0.246094 0.144531 0.386719 0.128906 h 2.914063 c 0.277343 0 0.5 -0.222656 0.5 -0.5 c 0 -0.273438 -0.222657 -0.5 -0.5 -0.5 h -2.761719 l -2.953125 -2.886719 c -0.09375 -0.09375 -0.222656 -0.144531 -0.355469 -0.144531 z m 0 0"/>
    <path d="m 8.878906 7.898438 c 0 0.5 -0.386718 0.902343 -0.863281 0.902343 s -0.859375 -0.402343 -0.859375 -0.902343 c 0 -0.496094 0.382812 -0.902344 0.859375 -0.902344 s 0.863281 0.40625 0.863281 0.902344 z m 0 0"/>
</svg>
