<?xml version="1.0" encoding="UTF-8"?>
<svg height="16px" viewBox="0 0 16 16" width="16px" xmlns="http://www.w3.org/2000/svg" xmlns:xlink="http://www.w3.org/1999/xlink">
    <filter id="a" height="100%" width="100%" x="0%" y="0%">
        <feColorMatrix in="SourceGraphic" type="matrix" values="0 0 0 0 1 0 0 0 0 1 0 0 0 0 1 0 0 0 1 0"/>
    </filter>
    <mask id="b">
        <g filter="url(#a)">
            <rect fill-opacity="0.2" height="16" width="16"/>
        </g>
    </mask>
    <clipPath id="c">
        <rect height="152" width="192"/>
    </clipPath>
    <mask id="d">
        <g filter="url(#a)">
            <rect fill-opacity="0.1" height="16" width="16"/>
        </g>
    </mask>
    <clipPath id="e">
        <rect height="152" width="192"/>
    </clipPath>
    <g clip-path="url(#c)" mask="url(#b)" transform="matrix(1 0 0 1 -174.210938 -12.210938)">
        <path d="m 104.175781 48.992188 c -0.296875 -0.007813 -0.582031 0.109374 -0.777343 0.332031 l -21.976563 23.664062 c -1.660156 -1.085937 -3.75 -1.28125 -5.582031 -0.523437 l -14.21875 -15.800782 c -0.402344 -0.460937 -0.992188 -0.710937 -1.605469 -0.683593 c -0.777344 0.039062 -1.460937 0.523437 -1.757813 1.246093 c -0.292968 0.71875 -0.144531 1.546876 0.386719 2.117188 l 14.21875 15.800781 c -0.890625 1.636719 -0.96875 3.597657 -0.210937 5.304688 c 0.503906 1.125 1.34375 2.066406 2.402344 2.699219 l -11.855469 30.492187 c -0.136719 0.335937 -0.078125 0.714844 0.144531 0.996094 c 0.226562 0.285156 0.585938 0.421875 0.941406 0.367187 c 0.355469 -0.054687 0.652344 -0.300781 0.78125 -0.636718 l 11.855469 -30.492188 c 1.230469 0.253906 2.507813 0.117188 3.652344 -0.390625 c 3.027343 -1.351563 4.386719 -4.898437 3.035156 -7.925781 c -0.191406 -0.425782 -0.433594 -0.832032 -0.722656 -1.203125 l 21.980469 -23.667969 c 0.269531 -0.289062 0.351562 -0.707031 0.203124 -1.074219 c -0.152343 -0.363281 -0.5 -0.609375 -0.894531 -0.621093 z m 0 0" fill-rule="evenodd"/>
    </g>
    <g clip-path="url(#e)" mask="url(#d)" transform="matrix(1 0 0 1 -174.210938 -12.210938)">
        <path d="m 78.140625 22 c -29.824219 0 -54 24.175781 -54 54 c 0.007813 0.390625 0.023437 0.78125 0.039063 1.171875 c 0.453124 -29.484375 24.472656 -53.152344 53.960937 -53.171875 c 29.355469 0.015625 53.320313 23.480469 53.957031 52.828125 c 0.015625 -0.277344 0.03125 -0.550781 0.042969 -0.828125 c 0 -29.824219 -24.175781 -54 -54 -54 z m 0 0"/>
    </g>
    <path d="m 8.019531 -0.101562 c -4.40625 0 -7.9999998 3.59375 -7.9999998 8 s 3.5937498 8 7.9999998 8 s 8 -3.59375 8 -8 s -3.59375 -8 -8 -8 z m 0 2 c 3.324219 0 6 2.675781 6 6 c 0 3.324218 -2.675781 6 -6 6 s -6 -2.675782 -6 -6 c 0 -3.324219 2.675781 -6 6 -6 z m 0 0"/>
    <path d="m 5.015625 4.59375 c -0.128906 0.003906 -0.257813 0.058594 -0.351563 0.152344 c -0.191406 0.195312 -0.1875 0.511718 0.007813 0.707031 l 3.113281 3.042969 c 0.105469 0.097656 0.246094 0.144531 0.386719 0.128906 h 2.914063 c 0.277343 0 0.5 -0.222656 0.5 -0.5 c 0 -0.273438 -0.222657 -0.5 -0.5 -0.5 h -2.761719 l -2.953125 -2.886719 c -0.09375 -0.09375 -0.222656 -0.144531 -0.355469 -0.144531 z m 0 0"/>
    <path d="m 8.878906 7.898438 c 0 0.496093 -0.386718 0.902343 -0.859375 0.902343 c -0.476562 0 -0.863281 -0.40625 -0.863281 -0.902343 c 0 -0.496094 0.386719 -0.902344 0.863281 -0.902344 c 0.472657 0 0.859375 0.40625 0.859375 0.902344 z m 0 0"/>
</svg>
