<?xml version="1.0" encoding="UTF-8"?>
<svg height="128px" viewBox="0 0 128 128" width="128px" xmlns="http://www.w3.org/2000/svg" xmlns:xlink="http://www.w3.org/1999/xlink">
    <filter id="a" height="100%" width="100%" x="0%" y="0%">
        <feColorMatrix in="SourceGraphic" type="matrix" values="0 0 0 0 1 0 0 0 0 1 0 0 0 0 1 0 0 0 1 0"/>
    </filter>
    <mask id="b">
        <g filter="url(#a)">
            <rect fill-opacity="0.2" height="128" width="128"/>
        </g>
    </mask>
    <clipPath id="c">
        <rect height="152" width="192"/>
    </clipPath>
    <linearGradient id="d" gradientUnits="userSpaceOnUse">
        <stop offset="0" stop-color="#949390"/>
        <stop offset="1" stop-color="#68676b"/>
    </linearGradient>
    <linearGradient id="e" x1="-627.010986" x2="-627.010986" xlink:href="#d" y1="393.550995" y2="413.550995"/>
    <linearGradient id="f" gradientTransform="matrix(1 0 0 0.8 0 72.310188)" x1="-618.010986" x2="-618.010986" xlink:href="#d" y1="361.550995" y2="371.550995"/>
    <linearGradient id="g" gradientTransform="matrix(1 0 0 0.8 0 93.110191)" x1="-618.010986" x2="-618.010986" xlink:href="#d" y1="455.550995" y2="465.550995"/>
    <mask id="h">
        <g filter="url(#a)">
            <rect fill-opacity="0.1" height="128" width="128"/>
        </g>
    </mask>
    <clipPath id="i">
        <rect height="152" width="192"/>
    </clipPath>
    <linearGradient id="j" x1="58.652122" x2="58.652122" xlink:href="#d" y1="34.389968" y2="39.378967"/>
    <path d="m 63.929688 63.789062 l 26 -28" fill="none" stroke="#ffffff" stroke-linecap="round" stroke-width="2.003129"/>
    <path d="m 123.929688 65.789062 c 0 33.136719 -26.863282 60 -60 60 c -33.140626 0 -60 -26.863281 -60 -60 c 0 -33.136718 26.859374 -60 60 -60 c 33.136718 0 60 26.863282 60 60 z m 0 0" fill="#666666"/>
    <path d="m 63.929688 7.789062 c 30.925781 0 56 25.074219 56 56 v 2 c 0 30.929688 -25.074219 56 -56 56 c -30.929688 0 -56 -25.070312 -56 -56 v -2 c 0 -30.925781 25.070312 -56 56 -56 z m 0 0" fill="#d5d3cf"/>
    <path d="m 123.929688 63.789062 c 0 33.136719 -26.863282 60 -60 60 c -33.140626 0 -60 -26.863281 -60 -60 c 0 -33.136718 26.859374 -60 60 -60 c 33.136718 0 60 26.863282 60 60 z m 0 0" fill="#424048"/>
    <path d="m 25.742188 25.605469 c 21.089843 -21.085938 55.28125 -21.085938 76.367187 0 c 21.089844 21.089843 21.089844 55.28125 0 76.367187 c -21.085937 21.089844 -55.277344 21.089844 -76.367187 0 c -21.085938 -21.085937 -21.085938 -55.277344 0 -76.367187 z m 0 0" fill="#ffffff"/>
    <g clip-path="url(#c)" mask="url(#b)" transform="matrix(1 0 0 1 -8 -16)">
        <path d="m 97.960938 52.78125 c -0.292969 -0.007812 -0.578126 0.113281 -0.773438 0.332031 l -21.976562 23.664063 c -1.660157 -1.085938 -3.75 -1.28125 -5.582032 -0.523438 l -14.21875 -15.800781 c -0.402344 -0.457031 -0.996094 -0.710937 -1.605468 -0.679687 c -0.777344 0.035156 -1.464844 0.519531 -1.757813 1.242187 c -0.292969 0.71875 -0.144531 1.546875 0.382813 2.117187 l 14.21875 15.800782 c -0.890626 1.640625 -0.96875 3.601562 -0.207032 5.304687 c 0.503906 1.125 1.34375 2.066407 2.402344 2.699219 l -11.859375 30.492188 c -0.132813 0.335937 -0.078125 0.71875 0.148437 1 c 0.222657 0.28125 0.582032 0.421874 0.9375 0.363281 c 0.359376 -0.054688 0.65625 -0.296875 0.78125 -0.636719 l 11.859376 -30.492188 c 1.230468 0.257813 2.507812 0.117188 3.652343 -0.390624 c 3.027344 -1.351563 4.386719 -4.898438 3.035157 -7.921876 c -0.191407 -0.429687 -0.4375 -0.835937 -0.722657 -1.207031 l 21.976563 -23.667969 c 0.273437 -0.285156 0.355468 -0.707031 0.203125 -1.070312 c -0.148438 -0.367188 -0.496094 -0.609375 -0.894531 -0.625 z m 0 0" fill-rule="evenodd"/>
    </g>
    <path d="m -618.009521 413.549911 l -18 -20" fill="none" stroke="url(#e)" stroke-linecap="round" stroke-width="4.00626" transform="matrix(1 0 0 1 681.939209 -349.760849)"/>
    <path d="m 63.929688 63.789062 l -14 36" fill="none" stroke="#f5c211" stroke-linecap="round" stroke-width="2.00313"/>
    <path d="m 69.40625 61.347656 c 1.351562 3.023438 -0.007812 6.574219 -3.035156 7.921875 c -3.023438 1.351563 -6.574219 -0.007812 -7.921875 -3.035156 c -1.351563 -3.027344 0.007812 -6.574219 3.035156 -7.921875 c 3.027344 -1.351562 6.574219 0.007812 7.921875 3.035156 z m 0 0" fill="#d5d3cf"/>
    <path d="m 65.960938 63.789062 c 0 1.109376 -0.898438 2.003907 -2.003907 2.003907 s -2.003906 -0.894531 -2.003906 -2.003907 c 0 -1.105468 0.898437 -2 2.003906 -2 s 2.003907 0.894532 2.003907 2 z m 0 0" fill="#131c1a"/>
    <path d="m 65.957031 63.789062 c 0 1.105469 -0.894531 2 -2 2 s -2 -0.894531 -2 -2 c 0 -1.101562 0.894531 -2 2 -2 s 2 0.898438 2 2 z m 0 0" fill="#f5c211"/>
    <g stroke-linecap="round" stroke-width="4">
        <path d="m -618.009521 361.549911 v 8" fill="none" stroke="url(#f)" transform="matrix(1 0 0 1 681.939209 -349.760849)"/>
        <path d="m -618.009521 457.549911 v 8" fill="none" stroke="url(#g)" transform="matrix(1 0 0 1 681.939209 -349.760849)"/>
        <path d="m -618.009888 361.549561 v 8" fill="none" stroke="url(#f)" transform="matrix(0 -1 1 0 -349.623779 -554.220825)"/>
        <path d="m -618.009888 457.549561 v 8" fill="none" stroke="url(#g)" transform="matrix(0 -1 1 0 -349.623779 -554.220825)"/>
        <path d="m -618.011032 361.54913 l 0.002762 8.001905" fill="#d8d8d8" stroke="url(#f)" transform="matrix(0.707107 -0.707107 0.707107 0.707107 208.502258 -665.634323)"/>
        <path d="m -618.011032 457.549893 v 7.999143" fill="#d8d8d8" stroke="url(#g)" transform="matrix(0.707107 -0.707107 0.707107 0.707107 208.502258 -665.634323)"/>
        <path d="m -618.012564 361.550899 v 7.999143" fill="#d8d8d8" stroke="url(#f)" transform="matrix(0.707107 0.707107 -0.707107 0.707107 793.351501 208.365372)"/>
        <path d="m -618.012564 457.551662 v 7.999143" fill="#d8d8d8" stroke="url(#g)" transform="matrix(0.707107 0.707107 -0.707107 0.707107 793.351501 208.365372)"/>
    </g>
    <g clip-path="url(#i)" mask="url(#h)" transform="matrix(1 0 0 1 -8 -16)">
        <path d="m 71.929688 25.789062 c -29.824219 0 -54 24.179688 -54 54 c 0.007812 0.390626 0.023437 0.78125 0.039062 1.171876 c 0.453125 -29.484376 24.472656 -53.152344 53.960938 -53.171876 c 29.355468 0.015626 53.320312 23.480469 53.957031 52.828126 c 0.015625 -0.273438 0.03125 -0.550782 0.042969 -0.828126 c 0 -29.820312 -24.179688 -54 -54 -54 z m 0 0"/>
    </g>
    <path d="m 52.222656 35.097656 h 0.75 v 2.921875 h -0.75 z m 2.941406 1.046875 v -1.171875 h 0.703126 v 3.046875 h -0.703126 v -0.3125 c -0.09375 0.125 -0.203124 0.21875 -0.328124 0.28125 c -0.117188 0.0625 -0.246094 0.09375 -0.390626 0.09375 c -0.273437 0 -0.496093 -0.109375 -0.671874 -0.328125 c -0.167969 -0.21875 -0.25 -0.492187 -0.25 -0.828125 c 0 -0.332031 0.082031 -0.601562 0.25 -0.8125 c 0.175781 -0.21875 0.398437 -0.328125 0.671874 -0.328125 c 0.144532 0 0.273438 0.03125 0.390626 0.09375 c 0.125 0.054688 0.234374 0.140625 0.328124 0.265625 z m -0.46875 1.421875 c 0.15625 0 0.269532 -0.050781 0.34375 -0.15625 c 0.082032 -0.113281 0.125 -0.273437 0.125 -0.484375 c 0 -0.207031 -0.042968 -0.363281 -0.125 -0.46875 c -0.074218 -0.113281 -0.1875 -0.171875 -0.34375 -0.171875 c -0.148437 0 -0.261718 0.058594 -0.34375 0.171875 c -0.074218 0.105469 -0.109374 0.261719 -0.109374 0.46875 c 0 0.210938 0.035156 0.371094 0.109374 0.484375 c 0.082032 0.105469 0.195313 0.15625 0.34375 0.15625 z m 4.019532 -0.640625 v 0.1875 h -1.625 c 0.007812 0.167969 0.066406 0.292969 0.171875 0.375 c 0.101562 0.085938 0.242187 0.125 0.421875 0.125 c 0.144531 0 0.296875 -0.019531 0.453125 -0.0625 c 0.15625 -0.050781 0.316406 -0.117187 0.484375 -0.203125 v 0.53125 c -0.167969 0.0625 -0.335938 0.109375 -0.5 0.140625 c -0.167969 0.039063 -0.335938 0.0625 -0.5 0.0625 c -0.398438 0 -0.703125 -0.097656 -0.921875 -0.296875 c -0.21875 -0.207031 -0.328125 -0.492187 -0.328125 -0.859375 c 0 -0.351562 0.101562 -0.628906 0.3125 -0.828125 c 0.21875 -0.207031 0.519531 -0.3125 0.90625 -0.3125 c 0.34375 0 0.613281 0.105469 0.8125 0.3125 c 0.207031 0.199219 0.3125 0.476563 0.3125 0.828125 z m -0.71875 -0.234375 c 0 -0.132812 -0.042969 -0.242187 -0.125 -0.328125 c -0.074219 -0.082031 -0.171875 -0.125 -0.296875 -0.125 c -0.136719 0 -0.246094 0.042969 -0.328125 0.125 c -0.085938 0.074219 -0.136719 0.183594 -0.15625 0.328125 z m 0.980468 -0.859375 h 0.703126 l 0.546874 1.515625 l 0.53125 -1.515625 h 0.703126 l -0.859376 2.1875 h -0.765624 z m 5.058594 1.09375 v 0.1875 h -1.625 c 0.007813 0.167969 0.066406 0.292969 0.171875 0.375 c 0.101563 0.085938 0.242188 0.125 0.421875 0.125 c 0.144532 0 0.296875 -0.019531 0.453125 -0.0625 c 0.15625 -0.050781 0.316407 -0.117187 0.484375 -0.203125 v 0.53125 c -0.167968 0.0625 -0.335937 0.109375 -0.5 0.140625 c -0.167968 0.039063 -0.335937 0.0625 -0.5 0.0625 c -0.398437 0 -0.703125 -0.097656 -0.921875 -0.296875 c -0.21875 -0.207031 -0.328125 -0.492187 -0.328125 -0.859375 c 0 -0.351562 0.101563 -0.628906 0.3125 -0.828125 c 0.21875 -0.207031 0.519532 -0.3125 0.90625 -0.3125 c 0.34375 0 0.613282 0.105469 0.8125 0.3125 c 0.207032 0.199219 0.3125 0.476563 0.3125 0.828125 z m -0.71875 -0.234375 c 0 -0.132812 -0.042968 -0.242187 -0.125 -0.328125 c -0.074218 -0.082031 -0.171875 -0.125 -0.296875 -0.125 c -0.136719 0 -0.246093 0.042969 -0.328125 0.125 c -0.085937 0.074219 -0.136718 0.183594 -0.15625 0.328125 z m 4.996094 1.171875 c -0.148438 0.074219 -0.292969 0.125 -0.4375 0.15625 c -0.148438 0.039063 -0.304688 0.0625 -0.46875 0.0625 c -0.492188 0 -0.875 -0.132812 -1.15625 -0.40625 c -0.28125 -0.28125 -0.421875 -0.648437 -0.421875 -1.109375 c 0 -0.46875 0.140625 -0.835937 0.421875 -1.109375 c 0.28125 -0.269531 0.664062 -0.40625 1.15625 -0.40625 c 0.164062 0 0.320312 0.023438 0.46875 0.0625 c 0.144531 0.03125 0.289062 0.085938 0.4375 0.15625 v 0.59375 c -0.148438 -0.09375 -0.289062 -0.160156 -0.421875 -0.203125 c -0.136719 -0.039062 -0.277344 -0.0625 -0.421875 -0.0625 c -0.273438 0 -0.484375 0.089844 -0.640625 0.265625 c -0.148437 0.167969 -0.21875 0.402344 -0.21875 0.703125 c 0 0.304688 0.070313 0.542969 0.21875 0.71875 c 0.15625 0.167969 0.367187 0.25 0.640625 0.25 c 0.144531 0 0.285156 -0.019531 0.421875 -0.0625 c 0.132813 -0.050781 0.273437 -0.125 0.421875 -0.21875 z m 1.625 -1.578125 c -0.15625 0 -0.277344 0.058594 -0.359375 0.171875 c -0.074219 0.105469 -0.109375 0.261719 -0.109375 0.46875 c 0 0.210938 0.035156 0.371094 0.109375 0.484375 c 0.082031 0.117188 0.203125 0.171875 0.359375 0.171875 s 0.269531 -0.054687 0.34375 -0.171875 c 0.082031 -0.113281 0.125 -0.273437 0.125 -0.484375 c 0 -0.207031 -0.042969 -0.363281 -0.125 -0.46875 c -0.074219 -0.113281 -0.1875 -0.171875 -0.34375 -0.171875 z m 0 -0.5 c 0.375 0 0.664062 0.105469 0.875 0.3125 c 0.21875 0.199219 0.328125 0.476563 0.328125 0.828125 c 0 0.367188 -0.109375 0.652344 -0.328125 0.859375 c -0.210938 0.199219 -0.5 0.296875 -0.875 0.296875 s -0.671875 -0.097656 -0.890625 -0.296875 c -0.210937 -0.207031 -0.3125 -0.492187 -0.3125 -0.859375 c 0 -0.351562 0.101563 -0.628906 0.3125 -0.828125 c 0.21875 -0.207031 0.515625 -0.3125 0.890625 -0.3125 z m 3.339844 0.640625 c -0.0625 -0.03125 -0.125 -0.050781 -0.1875 -0.0625 c -0.0625 -0.007812 -0.125 -0.015625 -0.1875 -0.015625 c -0.179688 0 -0.320313 0.058594 -0.421875 0.171875 c -0.09375 0.117188 -0.140625 0.277344 -0.140625 0.484375 v 1.015625 h -0.6875 v -2.1875 h 0.6875 v 0.359375 c 0.09375 -0.144531 0.195312 -0.25 0.3125 -0.3125 c 0.113281 -0.0625 0.253906 -0.09375 0.421875 -0.09375 h 0.0625 c 0.03125 0 0.070312 0.007813 0.125 0.015625 z m 2.519531 0.5 v 0.1875 h -1.625 c 0.007813 0.167969 0.066406 0.292969 0.171875 0.375 c 0.101562 0.085938 0.242188 0.125 0.421875 0.125 c 0.144531 0 0.296875 -0.019531 0.453125 -0.0625 c 0.15625 -0.050781 0.316406 -0.117187 0.484375 -0.203125 v 0.53125 c -0.167969 0.0625 -0.335937 0.109375 -0.5 0.140625 c -0.167969 0.039063 -0.335937 0.0625 -0.5 0.0625 c -0.398437 0 -0.703125 -0.097656 -0.921875 -0.296875 c -0.21875 -0.207031 -0.328125 -0.492187 -0.328125 -0.859375 c 0 -0.351562 0.101563 -0.628906 0.3125 -0.828125 c 0.21875 -0.207031 0.519531 -0.3125 0.90625 -0.3125 c 0.34375 0 0.613281 0.105469 0.8125 0.3125 c 0.207031 0.199219 0.3125 0.476563 0.3125 0.828125 z m -0.71875 -0.234375 c 0 -0.132812 -0.042969 -0.242187 -0.125 -0.328125 c -0.074219 -0.082031 -0.171875 -0.125 -0.296875 -0.125 c -0.136719 0 -0.246094 0.042969 -0.328125 0.125 c -0.085937 0.074219 -0.136719 0.183594 -0.15625 0.328125 z m -23.230469 -2.386718" fill="url(#j)"/>
</svg>
