<?xml version="1.0" encoding="UTF-8"?>
<svg height="128px" viewBox="0 0 128 128" width="128px" xmlns="http://www.w3.org/2000/svg" xmlns:xlink="http://www.w3.org/1999/xlink">
    <linearGradient id="a" gradientTransform="matrix(0.642392 -0.630345 0.208564 0.212562 386.387726 -428.94059)" gradientUnits="userSpaceOnUse" x1="-637.348999" x2="-637.348999" y1="372.281006" y2="472.281006">
        <stop offset="0" stop-color="#d7d7d7"/>
        <stop offset="1" stop-color="#7a7975"/>
    </linearGradient>
    <linearGradient id="b" gradientTransform="matrix(0.776203 -0.63048 0.142284 0.175174 495.649963 -415.84367)" gradientUnits="userSpaceOnUse" x1="-637.348999" x2="-637.348999" y1="384.781006" y2="459.781006">
        <stop offset="0" stop-color="#5697e3"/>
        <stop offset="1" stop-color="#1c71d8"/>
    </linearGradient>
    <path d="m 94.210938 24.902344 l 7.496093 7.238281 l -4.402343 4.554687 l -7.496094 -7.238281 z m 0 0" fill="#6a6a6a"/>
    <path d="m 97.359375 20.683594 l 8.648437 8.355468 c 1.113282 1.074219 1.15625 2.839844 0.09375 3.941407 l -3.574218 3.699219 l -12.683594 -12.25 l 3.574219 -3.699219 c 1.0625 -1.101563 2.828125 -1.121094 3.941406 -0.046875 z m 0 0" fill="#9c9c9c"/>
    <path d="m 57.5 12.445312 h 13 v 8 h -13 z m 0 0" fill="#9c9c9c"/>
    <path d="m 56.5 4.445312 h 15 c 1.933594 0 3.5 1.566407 3.5 3.5 v 6.5 h -22 v -6.5 c 0 -1.933593 1.566406 -3.5 3.5 -3.5 z m 0 0" fill="#d7d7d7"/>
    <path d="m 53 7.445312 h 22 v 7 h -22 z m 0 0" fill="#9c9c9c"/>
    <path d="m 55.445312 7.445312 h 2.445313 v 7 h -2.445313 z m 0 0" fill="#6a6a6a"/>
    <path d="m 62.777344 7.445312 h 2.445312 v 7 h -2.445312 z m 0 0" fill="#6a6a6a"/>
    <path d="m 70.109375 7.445312 h 2.445313 v 7 h -2.445313 z m 0 0" fill="#6a6a6a"/>
    <path d="m 109 66 c 0 24.851562 -20.148438 45 -45 45 s -45 -20.148438 -45 -45 s 20.148438 -45 45 -45 s 45 20.148438 45 45 z m 0 0" fill="#595958"/>
    <path d="m 109 65 c 0 24.851562 -20.148438 45 -45 45 s -45 -20.148438 -45 -45 s 20.148438 -45 45 -45 s 45 20.148438 45 45 z m 0 0" fill="url(#a)"/>
    <path d="m 101.5 64 c 0 20.710938 -16.789062 37.5 -37.5 37.5 s -37.5 -16.789062 -37.5 -37.5 s 16.789062 -37.5 37.5 -37.5 s 37.5 16.789062 37.5 37.5 z m 0 0" fill="url(#b)"/>
    <path d="m 96.5 64 c 0 17.949219 -14.550781 32.5 -32.5 32.5 s -32.5 -14.550781 -32.5 -32.5 s 14.550781 -32.5 32.5 -32.5 s 32.5 14.550781 32.5 32.5 z m 0 0" fill="#ffffff"/>
    <g fill="#e66100">
        <path d="m 64 32.5 c 0.828125 0 1.5 0.671875 1.5 1.5 v 7 c 0 0.828125 -0.671875 1.5 -1.5 1.5 s -1.5 -0.671875 -1.5 -1.5 v -7 c 0 -0.828125 0.671875 -1.5 1.5 -1.5 z m 0 0"/>
        <path d="m 64 85.5 c 0.828125 0 1.5 0.671875 1.5 1.5 v 7 c 0 0.828125 -0.671875 1.5 -1.5 1.5 s -1.5 -0.671875 -1.5 -1.5 v -7 c 0 -0.828125 0.671875 -1.5 1.5 -1.5 z m 0 0"/>
        <path d="m 34 62.5 h 7 c 0.828125 0 1.5 0.671875 1.5 1.5 s -0.671875 1.5 -1.5 1.5 h -7 c -0.828125 0 -1.5 -0.671875 -1.5 -1.5 s 0.671875 -1.5 1.5 -1.5 z m 0 0"/>
        <path d="m 87 63.5 h 7 c 0.828125 0 1.5 0.671875 1.5 1.5 s -0.671875 1.5 -1.5 1.5 h -7 c -0.828125 0 -1.5 -0.671875 -1.5 -1.5 s 0.671875 -1.5 1.5 -1.5 z m 0 0"/>
    </g>
    <path d="m 88.058594 43.539062 c 0.585937 0.585938 0.585937 1.535157 0 2.121094 l -4.949219 4.949219 c -0.585937 0.585937 -1.535156 0.585937 -2.121094 0 c -0.585937 -0.585937 -0.585937 -1.535156 0 -2.121094 l 4.949219 -4.949219 c 0.585938 -0.585937 1.535156 -0.585937 2.121094 0 z m 0 0" fill="#5697e3"/>
    <path d="m 40.265625 42.828125 c -0.585937 0.585937 -0.585937 1.535156 0 2.121094 l 4.949219 4.949219 c 0.585937 0.585937 1.535156 0.585937 2.121094 0 c 0.585937 -0.585938 0.585937 -1.535157 0 -2.121094 l -4.949219 -4.949219 c -0.585938 -0.585937 -1.535157 -0.585937 -2.121094 0 z m 0 0" fill="#5697e3"/>
    <path d="m 86.53125 85.105469 c 0.585938 -0.585938 0.585938 -1.539063 0 -2.121094 l -4.949219 -4.953125 c -0.585937 -0.585938 -1.535156 -0.585938 -2.121093 0 c -0.585938 0.585938 -0.585938 1.535156 0 2.121094 l 4.949218 4.953125 c 0.585938 0.585937 1.539063 0.585937 2.121094 0 z m 0 0" fill="#5697e3"/>
    <path d="m 40.742188 84.816406 c -0.585938 -0.585937 -0.585938 -1.539062 0 -2.125 l 4.949218 -4.949218 c 0.585938 -0.585938 1.535156 -0.585938 2.121094 0 c 0.585938 0.585937 0.585938 1.535156 0 2.121093 l -4.949219 4.953125 c -0.585937 0.582032 -1.535156 0.582032 -2.121093 0 z m 0 0" fill="#5697e3"/>
    <path d="m 83.792969 47.820312 l -18.695313 22.234376 l -5.371094 -5.960938 z m 0 0" fill="#b8b4b2"/>
    <path d="m 81.753906 45.949219 l -17.511718 23.179687 l -5.671876 -5.671875 z m 0 0" fill="#e5a50a"/>
    <path d="m 69.824219 64 c 0 3.316406 -2.683594 6 -6 6 c -3.3125 0 -6 -2.683594 -6 -6 c 0 -3.3125 2.6875 -6 6 -6 c 3.316406 0 6 2.6875 6 6 z m 0 0" fill="#969492"/>
    <path d="m 68.324219 64 c 0 2.484375 -2.011719 4.5 -4.5 4.5 c -2.484375 0 -4.5 -2.015625 -4.5 -4.5 s 2.015625 -4.5 4.5 -4.5 c 2.488281 0 4.5 2.015625 4.5 4.5 z m 0 0"/>
</svg>
