<?xml version="1.0" encoding="UTF-8"?>
<svg height="128px" viewBox="0 0 128 128" width="128px" xmlns="http://www.w3.org/2000/svg" xmlns:xlink="http://www.w3.org/1999/xlink">
    <filter id="a" height="100%" width="100%" x="0%" y="0%">
        <feColorMatrix in="SourceGraphic" type="matrix" values="0 0 0 0 1 0 0 0 0 1 0 0 0 0 1 0 0 0 1 0"/>
    </filter>
    <mask id="b">
        <g filter="url(#a)">
            <rect fill-opacity="0.2" height="128" width="128"/>
        </g>
    </mask>
    <clipPath id="c">
        <rect height="152" width="192"/>
    </clipPath>
    <linearGradient id="d" gradientUnits="userSpaceOnUse">
        <stop offset="0" stop-color="#949390"/>
        <stop offset="1" stop-color="#68676b"/>
    </linearGradient>
    <linearGradient id="e" x1="-627.010986" x2="-627.010986" xlink:href="#d" y1="393.550995" y2="413.550995"/>
    <linearGradient id="f" gradientTransform="matrix(1 0 0 0.8 0 72.310188)" x1="-618.010986" x2="-618.010986" xlink:href="#d" y1="361.550995" y2="371.550995"/>
    <linearGradient id="g" gradientTransform="matrix(1 0 0 0.8 0 93.110191)" x1="-618.010986" x2="-618.010986" xlink:href="#d" y1="455.550995" y2="465.550995"/>
    <mask id="h">
        <g filter="url(#a)">
            <rect fill-opacity="0.1" height="128" width="128"/>
        </g>
    </mask>
    <clipPath id="i">
        <rect height="152" width="192"/>
    </clipPath>
    <path d="m 63.929688 63.789062 l 26 -28" fill="none" stroke="#ffffff" stroke-linecap="round" stroke-width="2.003129"/>
    <path d="m 123.929688 65.789062 c 0 33.136719 -26.863282 60 -60 60 c -33.136719 0 -60 -26.863281 -60 -60 c 0 -33.136718 26.863281 -60 60 -60 c 33.136718 0 60 26.863282 60 60 z m 0 0" fill="#666666"/>
    <path d="m 63.929688 7.789062 c 30.925781 0 56 25.074219 56 56 v 2 c 0 30.929688 -25.074219 56 -56 56 c -30.929688 0 -56 -25.070312 -56 -56 v -2 c 0 -30.925781 25.070312 -56 56 -56 z m 0 0" fill="#d5d3cf"/>
    <path d="m 123.929688 63.789062 c 0 33.136719 -26.863282 60 -60 60 c -33.136719 0 -60 -26.863281 -60 -60 c 0 -33.136718 26.863281 -60 60 -60 c 33.136718 0 60 26.863282 60 60 z m 0 0" fill="#424048"/>
    <path d="m 25.742188 25.605469 c 21.089843 -21.089844 55.28125 -21.089844 76.371093 0 c 21.085938 21.089843 21.085938 55.277343 0 76.367187 c -21.089843 21.089844 -55.28125 21.089844 -76.371093 0 c -21.085938 -21.089844 -21.085938 -55.277344 0 -76.367187 z m 0 0" fill="#ffffff"/>
    <g clip-path="url(#c)" mask="url(#b)" transform="matrix(1 0 0 1 -14.210938 -12.210938)">
        <path d="m 104.175781 48.992188 c -0.296875 -0.007813 -0.582031 0.109374 -0.777343 0.332031 l -21.976563 23.664062 c -1.660156 -1.085937 -3.75 -1.28125 -5.582031 -0.523437 l -14.21875 -15.800782 c -0.402344 -0.460937 -0.992188 -0.710937 -1.605469 -0.683593 c -0.777344 0.039062 -1.460937 0.523437 -1.757813 1.246093 c -0.292968 0.71875 -0.144531 1.546876 0.386719 2.117188 l 14.21875 15.800781 c -0.890625 1.636719 -0.96875 3.597657 -0.210937 5.304688 c 0.503906 1.125 1.34375 2.066406 2.402344 2.699219 l -11.855469 30.492187 c -0.136719 0.335937 -0.078125 0.714844 0.144531 0.996094 c 0.226562 0.285156 0.585938 0.421875 0.941406 0.367187 c 0.355469 -0.054687 0.652344 -0.300781 0.78125 -0.636718 l 11.855469 -30.492188 c 1.230469 0.253906 2.507813 0.117188 3.652344 -0.390625 c 3.027343 -1.351563 4.386719 -4.898437 3.035156 -7.925781 c -0.191406 -0.425782 -0.433594 -0.832032 -0.722656 -1.203125 l 21.980469 -23.667969 c 0.269531 -0.289062 0.351562 -0.707031 0.203124 -1.074219 c -0.152343 -0.363281 -0.5 -0.609375 -0.894531 -0.621093 z m 0 0" fill-rule="evenodd"/>
    </g>
    <path d="m -618.010391 413.550888 l -18 -20" fill="none" stroke="url(#e)" stroke-linecap="round" stroke-width="4.00626" transform="matrix(1 0 0 1 681.940079 -349.761826)"/>
    <path d="m 63.929688 63.789062 l -14 36" fill="none" stroke="#f5c211" stroke-linecap="round" stroke-width="2.00313"/>
    <path d="m 69.410156 61.34375 c 1.347656 3.027344 -0.011718 6.574219 -3.039062 7.925781 c -3.023438 1.347657 -6.570313 -0.007812 -7.921875 -3.035156 c -1.351563 -3.027344 0.007812 -6.574219 3.035156 -7.925781 c 3.027344 -1.347656 6.574219 0.011718 7.925781 3.035156 z m 0 0" fill="#d5d3cf"/>
    <path d="m 65.960938 63.789062 c 0 1.105469 -0.898438 2.003907 -2.003907 2.003907 s -2.003906 -0.898438 -2.003906 -2.003907 c 0 -1.105468 0.898437 -2.003906 2.003906 -2.003906 s 2.003907 0.898438 2.003907 2.003906 z m 0 0" fill="#131c1a"/>
    <path d="m 65.957031 63.789062 c 0 1.105469 -0.894531 2 -2 2 s -2 -0.894531 -2 -2 c 0 -1.105468 0.894531 -2 2 -2 s 2 0.894532 2 2 z m 0 0" fill="#f5c211"/>
    <g stroke-linecap="round" stroke-width="4">
        <path d="m -618.010391 361.550888 v 8" fill="none" stroke="url(#f)" transform="matrix(1 0 0 1 681.940079 -349.761826)"/>
        <path d="m -618.010391 457.550888 v 8" fill="none" stroke="url(#g)" transform="matrix(1 0 0 1 681.940079 -349.761826)"/>
        <path d="m -618.010864 361.552597 v 8" fill="none" stroke="url(#f)" transform="matrix(0 -1 1 0 -349.62291 -554.221802)"/>
        <path d="m -618.010864 457.552597 v 8" fill="none" stroke="url(#g)" transform="matrix(0 -1 1 0 -349.62291 -554.221802)"/>
        <path d="m -618.009575 361.551967 v 7.999143" fill="#d8d8d8" stroke="url(#f)" transform="matrix(0.707107 -0.707107 0.707107 0.707107 208.503128 -665.6353)"/>
        <path d="m -618.012337 457.549968 l 0.002762 8.001905" fill="#d8d8d8" stroke="url(#g)" transform="matrix(0.707107 -0.707107 0.707107 0.707107 208.503128 -665.6353)"/>
        <path d="m -618.012488 361.552205 v 7.999142" fill="#d8d8d8" stroke="url(#f)" transform="matrix(0.707107 0.707107 -0.707107 0.707107 793.352371 208.364395)"/>
        <path d="m -618.009726 457.550206 l -0.002762 8.001905" fill="#d8d8d8" stroke="url(#g)" transform="matrix(0.707107 0.707107 -0.707107 0.707107 793.352371 208.364395)"/>
    </g>
    <g clip-path="url(#i)" mask="url(#h)" transform="matrix(1 0 0 1 -14.210938 -12.210938)">
        <path d="m 78.140625 22 c -29.824219 0 -54 24.175781 -54 54 c 0.007813 0.390625 0.023437 0.78125 0.039063 1.171875 c 0.453124 -29.484375 24.472656 -53.152344 53.960937 -53.171875 c 29.355469 0.015625 53.320313 23.480469 53.957031 52.828125 c 0.015625 -0.277344 0.03125 -0.550781 0.042969 -0.828125 c 0 -29.824219 -24.175781 -54 -54 -54 z m 0 0"/>
    </g>
</svg>
