<?xml version="1.0" encoding="utf-8"?>
<svg width="192" height="152" id="svg11300" version="1.0" style="display:inline;enable-background:new" viewBox="0 0 192 152" xmlns="http://www.w3.org/2000/svg" xmlns:xlink="http://www.w3.org/1999/xlink">
  <title id="title4162">Adwaita Icon Template</title>
  <defs id="defs3">
    <linearGradient id="linearGradient10876">
      <stop style="stop-color:#949390;stop-opacity:1" offset="0" id="stop10872"/>
      <stop style="stop-color:#68676b;stop-opacity:1" offset="1" id="stop10874"/>
    </linearGradient>
    <linearGradient id="linearGradient10876-0" gradientUnits="userSpaceOnUse" x1="-627.011" y1="393.551" x2="-627.011" y2="413.551" spreadMethod="pad" xlink:href="#linearGradient10876"/>
    <linearGradient id="linearGradient10876-1" gradientUnits="userSpaceOnUse" x1="-618.011" y1="361.551" x2="-618.011" y2="371.551" gradientTransform="matrix(1, 0, 0, 0.8, 0, 72.310188)" xlink:href="#linearGradient10876"/>
    <linearGradient id="linearGradient10876-3" gradientUnits="userSpaceOnUse" x1="-618.011" y1="455.551" x2="-618.011" y2="465.551" gradientTransform="matrix(1, 0, 0, 0.8, 0, 93.110191)" xlink:href="#linearGradient10876"/>
    <linearGradient id="linearGradient10876-5" gradientUnits="userSpaceOnUse" x1="-618.011" y1="361.551" x2="-618.011" y2="371.551" gradientTransform="matrix(1, 0, 0, 0.8, 0, 72.310188)" xlink:href="#linearGradient10876"/>
    <linearGradient id="linearGradient10876-6" gradientUnits="userSpaceOnUse" x1="-618.011" y1="455.551" x2="-618.011" y2="465.551" gradientTransform="matrix(1, 0, 0, 0.8, 0, 93.110191)" xlink:href="#linearGradient10876"/>
    <linearGradient id="linearGradient10876-2" gradientUnits="userSpaceOnUse" x1="-618.011" y1="361.551" x2="-618.011" y2="371.551" gradientTransform="matrix(1, 0, 0, 0.8, 0, 72.310188)" xlink:href="#linearGradient10876"/>
    <linearGradient id="linearGradient10876-4" gradientUnits="userSpaceOnUse" x1="-618.011" y1="455.551" x2="-618.011" y2="465.551" gradientTransform="matrix(1, 0, 0, 0.8, 0, 93.110191)" xlink:href="#linearGradient10876"/>
    <linearGradient id="linearGradient10876-7" gradientUnits="userSpaceOnUse" x1="-618.011" y1="361.551" x2="-618.011" y2="371.551" gradientTransform="matrix(1, 0, 0, 0.8, 0, 72.310188)" xlink:href="#linearGradient10876"/>
    <linearGradient id="linearGradient10876-8" gradientUnits="userSpaceOnUse" x1="-618.011" y1="455.551" x2="-618.011" y2="465.551" gradientTransform="matrix(1, 0, 0, 0.8, 0, 93.110191)" xlink:href="#linearGradient10876"/>
  </defs>
  <g id="layer1" style="display:inline" transform="matrix(1, 0, 0, 1, 14.211807, -159.790039)">
    <g id="layer4" style="display:inline">
      <rect y="172" x="9.2651362e-08" height="128" width="128" id="hicolor" style="display: inline; overflow: visible; visibility: visible; fill-opacity: 0; fill-rule: nonzero; stroke: none; stroke-width: 0.5; marker: none; fill: none;"/>
      <rect style="display: inline; overflow: visible; visibility: visible; fill-opacity: 0; fill-rule: nonzero; stroke: none; stroke-width: 0.5; marker: none; fill: none;" id="symbolic" width="16" height="16" x="160" y="172"/>
      <path d="M 168 172 C 163.594 172 160 175.594 160 180 C 160 184.406 163.594 188 168 188 C 172.406 188 176 184.406 176 180 C 176 175.594 172.406 172 168 172 Z M 168 174 C 171.324 174 174 176.676 174 180 C 174 183.324 171.324 186 168 186 C 164.676 186 162 183.324 162 180 C 162 176.676 164.676 174 168 174 Z M 168 174"/>
      <path d="M 164.961 176.983 C 164.832 176.987 164.703 177.041 164.61 177.135 C 164.418 177.331 164.422 177.647 164.617 177.842 L 167.731 180.885 C 167.836 180.983 167.977 181.03 168.117 181.014 L 171.032 181.014 C 171.309 181.014 171.532 180.791 171.532 180.514 C 171.532 180.241 171.309 180.014 171.032 180.014 L 168.27 180.014 L 165.317 177.127 C 165.223 177.034 165.094 176.983 164.961 176.983 Z M 164.961 176.983"/>
    </g>
    <g id="layer9" style="display:inline"/>
    <g id="layer3" style="display:inline">
      <circle cx="64.000031" cy="236" r="59.504131" id="circle2892" style="display:inline;opacity:0.1;vector-effect:none;fill:none;fill-opacity:1;stroke:#000000;stroke-width:0.99000001;stroke-linecap:butt;stroke-linejoin:miter;stroke-miterlimit:4;stroke-dasharray:0.99000001, 0.99000001;stroke-dashoffset:0;stroke-opacity:1;marker:none;marker-start:none;marker-mid:none;marker-end:none;paint-order:normal;enable-background:new"/>
      <rect ry="7.9292889" rx="8.701004" y="180.49496" x="20.495007" height="111.01005" width="87.009987" id="rect2894" style="display:inline;opacity:0.1;vector-effect:none;fill:none;fill-opacity:1;stroke:#000000;stroke-width:0.99000001;stroke-linecap:butt;stroke-linejoin:miter;stroke-miterlimit:4;stroke-dasharray:0.99000001, 0.99000001;stroke-dashoffset:0;stroke-opacity:1;marker:none;marker-start:none;marker-mid:none;marker-end:none;paint-order:normal;enable-background:new"/>
      <rect ry="7.9238095" rx="7.9238095" y="184.49524" x="12.495266" height="103.00952" width="103.00952" id="rect2896" style="display:inline;opacity:0.1;vector-effect:none;fill:none;fill-opacity:1;stroke:#000000;stroke-width:0.99000001;stroke-linecap:butt;stroke-linejoin:miter;stroke-miterlimit:4;stroke-dasharray:0.99000001, 0.99000001;stroke-dashoffset:0;stroke-opacity:1;marker:none;marker-start:none;marker-mid:none;marker-end:none;paint-order:normal;enable-background:new"/>
      <rect ry="8.701005" rx="7.9292889" y="200.49496" x="8.4950066" height="87.010048" width="111.01004" id="rect2898" style="display:inline;opacity:0.1;vector-effect:none;fill:none;fill-opacity:1;stroke:#000000;stroke-width:0.99000001;stroke-linecap:butt;stroke-linejoin:miter;stroke-miterlimit:4;stroke-dasharray:0.99000001, 0.99000001;stroke-dashoffset:0;stroke-opacity:1;marker:none;marker-start:none;marker-mid:none;marker-end:none;paint-order:normal;enable-background:new"/>
      <path id="path2900" d="M 2.6203015e-5,288.99999 H 128.00003" style="display:inline;fill:none;stroke:#62a0ea;stroke-width:2;stroke-linecap:butt;stroke-linejoin:miter;stroke-miterlimit:4;stroke-dasharray:none;stroke-opacity:1;enable-background:new"/>
    </g>
    <g id="g1648" transform="translate(-120.50005,-26)"/>
    <g style="display:inline;enable-background:new" id="g-1" transform="matrix(1, 0, 0, 1, 681.939209, -177.760849)">
      <path id="path-1" d="M -618.011 413.551 L -592.011 385.551" style="display:inline;fill:none;fill-rule:evenodd;stroke:#ffffff;stroke-width:2.00312948;stroke-linecap:round;stroke-linejoin:miter;stroke-opacity:1;enable-background:new" transform="matrix(1, 0, 0, 1, 0.000035, 0.000053)"/>
      <path id="path-2" d="m -558.01133,415.5513 a 59.999995,59.999995 0 0 1 -59.99999,60 59.999995,59.999995 0 0 1 -60,-60 59.999995,59.999995 0 0 1 60,-59.99999 59.999995,59.999995 0 0 1 59.99999,59.99999 z" style="display: inline; opacity: 1; fill-opacity: 1; stroke: none; stroke-width: 0.0112982px; stroke-linecap: butt; stroke-linejoin: miter; stroke-miterlimit: 4; stroke-dasharray: none; stroke-dashoffset: 0; stroke-opacity: 1; marker: none; paint-order: normal; fill: rgb(102, 102, 102);"/>
      <rect style="display:inline;opacity:1;fill:#d5d3cf;fill-opacity:1;stroke:none;stroke-width:0.01129822px;stroke-linecap:butt;stroke-linejoin:miter;stroke-miterlimit:4;stroke-dasharray:none;stroke-dashoffset:0;stroke-opacity:1;marker:none;marker-start:none;marker-mid:none;marker-end:none;paint-order:normal;enable-background:new" id="rect-1" width="112" height="114" x="-674.01123" y="357.5513" rx="56" ry="56"/>
      <path style="display: inline; opacity: 1; fill-opacity: 1; stroke: none; stroke-width: 0.0112982px; stroke-linecap: butt; stroke-linejoin: miter; stroke-miterlimit: 4; stroke-dasharray: none; stroke-dashoffset: 0; stroke-opacity: 1; marker: none; paint-order: normal; fill: rgb(66, 64, 72);" d="m -558.01133,413.5513 a 59.999995,59.999995 0 0 1 -59.99999,59.99999 59.999995,59.999995 0 0 1 -60,-59.99999 59.999995,59.999995 0 0 1 60,-60 59.999995,59.999995 0 0 1 59.99999,60 z" id="path-3"/>
      <circle r="54" style="display: inline; opacity: 1; fill-opacity: 1; stroke: none; stroke-width: 0.0112982px; stroke-linecap: butt; stroke-linejoin: miter; stroke-miterlimit: 4; stroke-dasharray: none; stroke-dashoffset: 0; stroke-opacity: 1; marker: none; paint-order: normal; fill: rgb(255, 255, 255);" id="circle-1" cx="618.012" cy="-413.551" transform="matrix(-0.707107, -0.707107, 0.707107, -0.707107, 111.413151, 558.126699)"/>
      <path id="path-4" d="m -591.9764,386.54325 a 1.0016649,1.0016649 0 0 0 -0.77686,0.33008 l -21.97461,23.66504 a 5.9999995,5.9999995 0 0 0 -5.58203,-0.52246 l -14.2207,-15.80079 a 2.0033298,2.0033298 0 0 0 -1.60352,-0.68212 2.0033298,2.0033298 0 0 0 -1.37402,3.36181 l 14.21924,15.79932 a 5.9999995,5.9999995 0 0 0 -0.20997,5.30517 5.9999995,5.9999995 0 0 0 2.4043,2.69922 l -11.8584,30.49366 a 1.0016649,1.0016649 0 1 0 1.86719,0.72558 l 11.85742,-30.49121 a 5.9999995,5.9999995 0 0 0 3.65332,-0.39209 5.9999995,5.9999995 0 0 0 3.03516,-7.92383 5.9999995,5.9999995 0 0 0 -0.7251,-1.2041 l 21.9795,-23.66992 a 1.0016649,1.0016649 0 0 0 -0.69092,-1.69336 z" style="color:#000000;font-style:normal;font-variant:normal;font-weight:normal;font-stretch:normal;font-size:medium;line-height:normal;font-family:sans-serif;font-variant-ligatures:normal;font-variant-position:normal;font-variant-caps:normal;font-variant-numeric:normal;font-variant-alternates:normal;font-feature-settings:normal;text-indent:0;text-align:start;text-decoration:none;text-decoration-line:none;text-decoration-style:solid;text-decoration-color:#000000;letter-spacing:normal;word-spacing:normal;text-transform:none;writing-mode:lr-tb;direction:ltr;text-orientation:mixed;dominant-baseline:auto;baseline-shift:baseline;text-anchor:start;white-space:normal;shape-padding:0;clip-rule:nonzero;display:inline;overflow:visible;visibility:visible;opacity:0.2;isolation:auto;mix-blend-mode:normal;color-interpolation:sRGB;color-interpolation-filters:linearRGB;solid-color:#000000;solid-opacity:1;fill:#000000;fill-opacity:1;fill-rule:evenodd;stroke:none;stroke-width:4.00625896;stroke-linecap:round;stroke-linejoin:miter;stroke-miterlimit:4;stroke-dasharray:none;stroke-dashoffset:0;stroke-opacity:1;color-rendering:auto;image-rendering:auto;shape-rendering:auto;text-rendering:auto;enable-background:new"/>
      <path style="display: inline; fill: none; fill-rule: evenodd; stroke-width: 4.00626; stroke-linecap: round; stroke-linejoin: miter; stroke-opacity: 1; stroke: url(#linearGradient10876-0);" d="m -618.01122,413.5513 -18,-20" id="path-5"/>
      <path style="display: inline; fill: none; fill-rule: evenodd; stroke-width: 2.00313; stroke-linecap: round; stroke-linejoin: miter; stroke-opacity: 1; stroke: rgb(245, 194, 17);" d="m -618.01122,413.5513 -14,36" id="path-6"/>
      <circle r="5.9999995" cy="125.93015" cx="-732.8739" id="circle-2" style="color:#000000;clip-rule:nonzero;display:inline;overflow:visible;visibility:visible;opacity:1;color-interpolation:sRGB;color-interpolation-filters:linearRGB;fill:#d5d3cf;fill-opacity:1;fill-rule:nonzero;stroke:none;stroke-width:7.77220678;stroke-linecap:round;stroke-linejoin:round;stroke-miterlimit:4;stroke-dasharray:none;stroke-dashoffset:0;stroke-opacity:1;marker:none;color-rendering:auto;image-rendering:auto;shape-rendering:auto;text-rendering:auto;enable-background:accumulate" transform="rotate(-24.039088)"/>
      <circle r="2.0031295" style="color:#000000;clip-rule:nonzero;display:inline;overflow:visible;visibility:visible;opacity:1;color-interpolation:sRGB;color-interpolation-filters:linearRGB;fill:#131c1a;fill-opacity:1;fill-rule:nonzero;stroke:none;stroke-width:8.01251698;stroke-linecap:round;stroke-linejoin:round;stroke-miterlimit:4;stroke-dasharray:none;stroke-dashoffset:0;stroke-opacity:1;marker:none;color-rendering:auto;image-rendering:auto;shape-rendering:auto;text-rendering:auto;enable-background:accumulate" id="circle-3" cx="-617.98218" cy="413.5513"/>
      <circle r="2" cy="413.5513" cx="-617.98218" id="circle-4" style="color: rgb(0, 0, 0); clip-rule: nonzero; display: inline; overflow: visible; visibility: visible; opacity: 1; color-interpolation: srgb; color-interpolation-filters: linearrgb; fill-opacity: 1; fill-rule: nonzero; stroke: none; stroke-width: 8.01252; stroke-linecap: round; stroke-linejoin: round; stroke-miterlimit: 4; stroke-dasharray: none; stroke-dashoffset: 0; stroke-opacity: 1; marker: none; color-rendering: auto; image-rendering: auto; shape-rendering: auto; text-rendering: auto; fill: rgb(245, 194, 17);"/>
      <g>
        <line style="fill: rgb(216, 216, 216); stroke-width: 4px; stroke-linecap: round; stroke: url(#linearGradient10876-1);" x1="-618.011" y1="361.551" x2="-618.011" y2="369.551"/>
        <line style="fill: rgb(216, 216, 216); stroke-width: 4px; stroke-linecap: round; stroke: url(#linearGradient10876-3);" x1="-618.011" y1="457.551" x2="-618.011" y2="465.551"/>
      </g>
      <g transform="matrix(0, -1, 1, 0, -1031.562988, -204.459976)">
        <line style="fill: rgb(216, 216, 216); stroke-width: 4px; stroke-linecap: round; stroke: url(#linearGradient10876-5);" x1="-618.011" y1="361.551" x2="-618.011" y2="369.551"/>
        <line style="fill: rgb(216, 216, 216); stroke-width: 4px; stroke-linecap: round; stroke: url(#linearGradient10876-6);" x1="-618.011" y1="457.551" x2="-618.011" y2="465.551"/>
      </g>
      <g transform="matrix(0.707107, -0.707107, 0.707107, 0.707107, -473.436951, -315.873474)">
        <line style="fill: rgb(216, 216, 216); stroke-width: 4px; stroke-linecap: round; stroke: url(#linearGradient10876-2);" x1="-618.011" y1="361.551" x2="-618.011" y2="369.551"/>
        <line style="fill: rgb(216, 216, 216); stroke-width: 4px; stroke-linecap: round; stroke: url(#linearGradient10876-4);" x1="-618.011" y1="457.551" x2="-618.011" y2="465.551"/>
      </g>
      <g transform="matrix(0.707107, 0.707107, -0.707107, 0.707107, 111.412292, 558.126221)">
        <line style="fill: rgb(216, 216, 216); stroke-width: 4px; stroke-linecap: round; stroke: url(#linearGradient10876-7);" x1="-618.011" y1="361.551" x2="-618.011" y2="369.551"/>
        <line style="fill: rgb(216, 216, 216); stroke-width: 4px; stroke-linecap: round; stroke: url(#linearGradient10876-8);" x1="-618.011" y1="457.551" x2="-618.011" y2="465.551"/>
      </g>
      <path id="path-7" d="M -618.011 359.551 C -647.835 359.551 -672.011 383.728 -672.011 413.551 C -672.002 413.942 -671.988 414.332 -671.97 414.722 C -671.517 385.239 -647.498 361.571 -618.011 361.551 C -588.656 361.567 -564.69 385.031 -564.053 414.379 C -564.037 414.103 -564.023 413.827 -564.011 413.551 C -564.011 383.728 -588.188 359.551 -618.011 359.551 L -618.011 359.551 Z" style="display: inline; opacity: 0.1; fill-opacity: 1; stroke: none; stroke-width: 0.0112982px; stroke-linecap: butt; stroke-linejoin: miter; stroke-miterlimit: 4; stroke-dasharray: none; stroke-dashoffset: 0; stroke-opacity: 1; marker: none; paint-order: normal;"/>
    </g>
  </g>
</svg>